<?xml version="1.0" standalone="no"?>
<!DOCTYPE svg PUBLIC "-//W3C//DTD SVG 20010904//EN"
 "http://www.w3.org/TR/2001/REC-SVG-20010904/DTD/svg10.dtd">
<svg version="1.0" xmlns="http://www.w3.org/2000/svg"
 width="570.000000pt" height="570.000000pt" viewBox="0 0 570.000000 570.000000"
 preserveAspectRatio="xMidYMid meet">
<metadata>
Created by potrace 1.14, written by Peter Selinger 2001-2017
</metadata>
<g transform="translate(0.000000,570.000000) scale(0.100000,-0.100000)"
fill="#000000" stroke="none">
<path d="M2740 5439 c-164 -33 -233 -56 -359 -117 -116 -56 -260 -166 -350
-266 -14 -16 -32 -35 -38 -42 -7 -7 -13 -16 -13 -21 0 -5 -9 -15 -20 -23 -11
-8 -20 -20 -20 -26 0 -7 -3 -14 -7 -16 -23 -10 -129 -208 -157 -293 -26 -80
-24 -79 -97 -46 -74 35 -216 77 -292 88 -68 9 -278 9 -342 0 -93 -14 -110 -18
-200 -49 -125 -43 -284 -126 -332 -174 -8 -8 -18 -14 -23 -14 -21 0 -210 -202
-261 -280 -98 -148 -184 -341 -191 -432 -1 -16 -5 -28 -9 -28 -3 0 -6 -6 -6
-12 0 -7 -4 -35 -9 -63 -10 -59 -10 -356 -1 -400 4 -16 9 -41 12 -55 3 -14 7
-36 10 -50 4 -14 8 -35 11 -47 7 -35 61 -178 85 -225 85 -171 222 -342 346
-434 21 -16 40 -31 43 -34 73 -74 384 -205 495 -209 20 -1 20 -5 20 -853 -1
-505 3 -863 8 -878 34 -91 50 -111 122 -159 l40 -26 1625 0 1625 0 40 21 c55
30 100 83 120 139 14 43 16 141 16 896 l0 848 37 8 c20 4 39 8 42 8 90 18 161
41 235 75 33 15 70 30 83 34 12 4 22 12 22 17 0 5 5 9 11 9 6 0 43 21 82 48
112 74 286 253 352 363 14 23 79 143 80 149 1 3 7 19 14 35 21 49 60 160 66
191 18 80 31 163 29 178 -1 9 1 18 4 20 15 9 5 261 -14 360 -59 318 -242 620
-484 795 -30 22 -60 44 -66 48 -66 49 -238 126 -344 153 -101 27 -139 31 -280
35 -138 3 -236 -11 -369 -51 -45 -14 -84 -24 -85 -22 -1 2 -8 21 -15 43 -17
52 -99 214 -117 232 -8 8 -14 18 -14 23 0 5 -6 15 -12 22 -7 7 -26 31 -42 53
-49 67 -187 197 -268 253 -42 28 -79 52 -83 52 -4 0 -19 8 -33 18 -15 11 -61
32 -102 49 -41 17 -84 34 -95 38 -11 5 -27 9 -35 10 -8 1 -33 7 -55 13 -22 6
-58 14 -80 18 -64 11 -306 12 -355 3z m349 -3464 c57 -11 134 -50 194 -98 31
-26 59 -47 63 -47 3 0 22 16 42 35 67 65 208 122 292 120 72 -2 175 -52 217
-105 83 -105 84 -261 2 -445 -37 -82 -177 -259 -279 -350 -48 -44 -116 -100
-144 -120 -16 -11 -33 -25 -40 -30 -6 -6 -31 -23 -54 -38 l-44 -28 -96 73
c-123 93 -139 106 -234 201 -239 237 -336 493 -255 670 44 97 104 143 212 165
41 8 66 8 124 -3z"/>
</g>
</svg>
